<svg width="12" height="12" viewBox="0 0 12 12" fill="none" xmlns="http://www.w3.org/2000/svg">
<path d="M6 1C5.34339 1 4.69321 1.12933 4.08658 1.3806C3.47995 1.63188 2.92876 2.00017 2.46447 2.46447C1.52678 3.40215 1 4.67392 1 6C1 8.21 2.435 10.085 4.42 10.75C4.67 10.79 4.75 10.635 4.75 10.5C4.75 10.385 4.75 10.07 4.75 9.655C3.365 9.955 3.07 8.985 3.07 8.985C2.84 8.405 2.515 8.25 2.515 8.25C2.06 7.94 2.55 7.95 2.55 7.95C3.05 7.985 3.315 8.465 3.315 8.465C3.75 9.225 4.485 9 4.77 8.88C4.815 8.555 4.945 8.335 5.085 8.21C3.975 8.085 2.81 7.655 2.81 5.75C2.81 5.195 3 4.75 3.325 4.395C3.275 4.27 3.1 3.75 3.375 3.075C3.375 3.075 3.795 2.94 4.75 3.585C5.145 3.475 5.575 3.42 6 3.42C6.425 3.42 6.855 3.475 7.25 3.585C8.205 2.94 8.625 3.075 8.625 3.075C8.9 3.75 8.725 4.27 8.675 4.395C9 4.75 9.19 5.195 9.19 5.75C9.19 7.66 8.02 8.08 6.905 8.205C7.085 8.36 7.25 8.665 7.25 9.13C7.25 9.8 7.25 10.34 7.25 10.5C7.25 10.635 7.33 10.795 7.585 10.75C9.57 10.08 11 8.21 11 6C11 5.34339 10.8707 4.69321 10.6194 4.08658C10.3681 3.47995 9.99983 2.92876 9.53553 2.46447C9.07124 2.00017 8.52005 1.63188 7.91342 1.3806C7.30679 1.12933 6.65661 1 6 1V1Z" fill="black"/>
</svg>
